HIERARCHY
ROOT reference
{
  OFFSET 0 0 0
  CHANNELS 6 Xposition Yposition Zposition Zrotation Xrotation Yrotation
  JOINT Hips
  {
    OFFSET 44.6805 85.9651 -20.1189
    CHANNELS 3 Zrotation Xrotation Yrotation
    JOINT RightUpLeg
    {
      OFFSET -9.20028 -1.61905 0.0313892
      CHANNELS 3 Zrotation Xrotation Yrotation
      JOINT RightLeg
      {
        OFFSET 0.0920446 -41.8676 0.113709
        CHANNELS 3 Zrotation Xrotation Yrotation
        JOINT RightFoot
        {
          OFFSET -0.78009 -42.2818 -0.985537
          CHANNELS 3 Zrotation Xrotation Yrotation
          End Site
          {
            OFFSET 0 -7.69 17.5
          }
        }
      }
    }
    JOINT LeftUpLeg
    {
      OFFSET 9.33559 -1.63058 -0.0435578
      CHANNELS 3 Zrotation Xrotation Yrotation
      JOINT LeftLeg
      {
        OFFSET 0.124601 -41.8685 -0.0153308
        CHANNELS 3 Zrotation Xrotation Yrotation
        JOINT LeftFoot
        {
          OFFSET -0.885525 -42.178 -0.480441
          CHANNELS 3 Zrotation Xrotation Yrotation
          End Site
          {
            OFFSET 0 -7.69 17.5
          }
        }
      }
    }
    JOINT Spine
    {
      OFFSET -0.030151 14.2977 0.0632059
      CHANNELS 3 Zrotation Xrotation Yrotation
      JOINT Spine1
      {
        OFFSET -0.0449239 9.71163 -4.69081e-05
        CHANNELS 3 Zrotation Xrotation Yrotation
        JOINT Spine2
        {
          OFFSET 0.0275009 10.1133 -0.0283136
          CHANNELS 3 Zrotation Xrotation Yrotation
          JOINT Spine3
          {
            OFFSET 0.0288761 9.7229 -0.000806902
            CHANNELS 3 Zrotation Xrotation Yrotation
            JOINT Neck
            {
              OFFSET -0.0518603 10.2949 0.241895
              CHANNELS 3 Zrotation Xrotation Yrotation
              JOINT Head
              {
                OFFSET -0.275401 9.55953 0.0709142
                CHANNELS 3 Zrotation Xrotation Yrotation
                End Site
                {
                  OFFSET 0 15.95 0
                }
              }
            }
            JOINT RightShoulder
            {
              OFFSET -3.17286 6.95881 0.00543218
              CHANNELS 3 Zrotation Xrotation Yrotation
              JOINT RightArm
              {
                OFFSET -12.7612 0.039846 0.0411956
                CHANNELS 3 Zrotation Xrotation Yrotation
                JOINT RightForeArm
                {
                  OFFSET -26.5517 0.0729849 0.08211
                  CHANNELS 3 Zrotation Xrotation Yrotation
                  JOINT RightHand
                  {
                    OFFSET -26.0042 -0.0197864 0.0403594
                    CHANNELS 3 Zrotation Xrotation Yrotation
                    JOINT RightHandThumb1
                    {
                      OFFSET -2.48905 0.190105 3.12053
                      CHANNELS 3 Zrotation Xrotation Yrotation
                      JOINT RightHandThumb2
                      {
                        OFFSET -3.68274 0 0
                        CHANNELS 3 Zrotation Xrotation Yrotation
                        JOINT RightHandThumb3
                        {
                          OFFSET -2.55832 0 0
                          CHANNELS 3 Zrotation Xrotation Yrotation
                          End Site
                          {
                            OFFSET -2.194 0 0
                          }
                        }
                      }
                    }
                    JOINT RightInHandIndex
                    {
                      OFFSET -3.22368 0.508421 1.97842
                      CHANNELS 3 Zrotation Xrotation Yrotation
                      JOINT RightHandIndex1
                      {
                        OFFSET -5.21684 -0.091368 0.999158
                        CHANNELS 3 Zrotation Xrotation Yrotation
                        JOINT RightHandIndex2
                        {
                          OFFSET -3.61937 0 0
                          CHANNELS 3 Zrotation Xrotation Yrotation
                          JOINT RightHandIndex3
                          {
                            OFFSET -2.0521 0 0
                            CHANNELS 3 Zrotation Xrotation Yrotation
                            End Site
                            {
                              OFFSET -1.805 0 0
                            }
                          }
                        }
                      }
                    }
                    JOINT RightInHandMiddle
                    {
                      OFFSET -3.38211 0.517263 0.756737
                      CHANNELS 3 Zrotation Xrotation Yrotation
                      JOINT RightHandMiddle1
                      {
                        OFFSET -5.17411 -0.084 0.313895
                        CHANNELS 3 Zrotation Xrotation Yrotation
                        JOINT RightHandMiddle2
                        {
                          OFFSET -3.94947 0 0
                          CHANNELS 3 Zrotation Xrotation Yrotation
                          JOINT RightHandMiddle3
                          {
                            OFFSET -2.47579 0 0
                            CHANNELS 3 Zrotation Xrotation Yrotation
                            End Site
                            {
                              OFFSET -1.975 0 0
                            }
                          }
                        }
                      }
                    }
                    JOINT RightInHandRing
                    {
                      OFFSET -3.36516 0.537895 -0.128947
                      CHANNELS 3 Zrotation Xrotation Yrotation
                      JOINT RightHandRing1
                      {
                        OFFSET -4.63474 -0.022105 -0.478947
                        CHANNELS 3 Zrotation Xrotation Yrotation
                        JOINT RightHandRing2
                        {
                          OFFSET -3.44238 0 0
                          CHANNELS 3 Zrotation Xrotation Yrotation
                          JOINT RightHandRing3
                          {
                            OFFSET -2.3881 0 0
                            CHANNELS 3 Zrotation Xrotation Yrotation
                            End Site
                            {
                              OFFSET -1.857 0 0
                            }
                          }
                        }
                      }
                    }
                    JOINT RightInHandPinky
                    {
                      OFFSET -3.16105 0.469368 -1.20179
                      CHANNELS 3 Zrotation Xrotation Yrotation
                      JOINT RightHandPinky1
                      {
                        OFFSET -4.14105 -0.022105 -1.09053
                        CHANNELS 3 Zrotation Xrotation Yrotation
                        JOINT RightHandPinky2
                        {
                          OFFSET -2.75653 0 0
                          CHANNELS 3 Zrotation Xrotation Yrotation
                          JOINT RightHandPinky3
                          {
                            OFFSET -1.74189 0 0
                            CHANNELS 3 Zrotation Xrotation Yrotation
                            End Site
                            {
                              OFFSET -1.645 0 0
                            }
                          }
                        }
                      }
                    }
                  }
                }
              }
            }
            JOINT LeftShoulder
            {
              OFFSET 3.22572 6.89245 -0.0537601
              CHANNELS 3 Zrotation Xrotation Yrotation
              JOINT LeftArm
              {
                OFFSET 12.8183 -0.0506887 -0.111983
                CHANNELS 3 Zrotation Xrotation Yrotation
                JOINT LeftForeArm
                {
                  OFFSET 26.4786 -0.0502099 0.0159937
                  CHANNELS 3 Zrotation Xrotation Yrotation
                  JOINT LeftHand
                  {
                    OFFSET 25.8931 -0.161185 0.0946899
                    CHANNELS 3 Zrotation Xrotation Yrotation
                    JOINT LeftHandThumb1
                    {
                      OFFSET 2.48905 0.190105 3.12053
                      CHANNELS 3 Zrotation Xrotation Yrotation
                      JOINT LeftHandThumb2
                      {
                        OFFSET 3.68274 0 0
                        CHANNELS 3 Zrotation Xrotation Yrotation
                        JOINT LeftHandThumb3
                        {
                          OFFSET 2.55832 0 0
                          CHANNELS 3 Zrotation Xrotation Yrotation
                          End Site
                          {
                            OFFSET 2.194 0 0
                          }
                        }
                      }
                    }
                    JOINT LeftInHandIndex
                    {
                      OFFSET 3.22368 0.508421 1.97842
                      CHANNELS 3 Zrotation Xrotation Yrotation
                      JOINT LeftHandIndex1
                      {
                        OFFSET 5.21684 -0.091368 0.999158
                        CHANNELS 3 Zrotation Xrotation Yrotation
                        JOINT LeftHandIndex2
                        {
                          OFFSET 3.61937 0 0
                          CHANNELS 3 Zrotation Xrotation Yrotation
                          JOINT LeftHandIndex3
                          {
                            OFFSET 2.0521 0 0
                            CHANNELS 3 Zrotation Xrotation Yrotation
                            End Site
                            {
                              OFFSET 1.805 0 0
                            }
                          }
                        }
                      }
                    }
                    JOINT LeftInHandMiddle
                    {
                      OFFSET 3.38211 0.517263 0.756737
                      CHANNELS 3 Zrotation Xrotation Yrotation
                      JOINT LeftHandMiddle1
                      {
                        OFFSET 5.17411 -0.084 0.313895
                        CHANNELS 3 Zrotation Xrotation Yrotation
                        JOINT LeftHandMiddle2
                        {
                          OFFSET 3.94947 0 0
                          CHANNELS 3 Zrotation Xrotation Yrotation
                          JOINT LeftHandMiddle3
                          {
                            OFFSET 2.47579 0 0
                            CHANNELS 3 Zrotation Xrotation Yrotation
                            End Site
                            {
                              OFFSET 1.975 0 0
                            }
                          }
                        }
                      }
                    }
                    JOINT LeftInHandRing
                    {
                      OFFSET 3.36516 0.537895 -0.128947
                      CHANNELS 3 Zrotation Xrotation Yrotation
                      JOINT LeftHandRing1
                      {
                        OFFSET 4.63474 -0.022105 -0.478947
                        CHANNELS 3 Zrotation Xrotation Yrotation
                        JOINT LeftHandRing2
                        {
                          OFFSET 3.44238 0 0
                          CHANNELS 3 Zrotation Xrotation Yrotation
                          JOINT LeftHandRing3
                          {
                            OFFSET 2.3881 0 0
                            CHANNELS 3 Zrotation Xrotation Yrotation
                            End Site
                            {
                              OFFSET 1.857 0 0
                            }
                          }
                        }
                      }
                    }
                    JOINT LeftInHandPinky
                    {
                      OFFSET 3.16105 0.469368 -1.20179
                      CHANNELS 3 Zrotation Xrotation Yrotation
                      JOINT LeftHandPinky1
                      {
                        OFFSET 4.14105 -0.022105 -1.09053
                        CHANNELS 3 Zrotation Xrotation Yrotation
                        JOINT LeftHandPinky2
                        {
                          OFFSET 2.75653 0 0
                          CHANNELS 3 Zrotation Xrotation Yrotation
                          JOINT LeftHandPinky3
                          {
                            OFFSET 1.74189 0 0
                            CHANNELS 3 Zrotation Xrotation Yrotation
                            End Site
                            {
                              OFFSET 1.645 0 0
                            }
                          }
                        }
                      }
                    }
                  }
                }
              }
            }
          }
        }
      }
    }
  }
}
MOTION
Frames:	5
Frame Time:	0.00833333
0 0 0 0 0 -0 23.7845 -27.1113 -123.499 -6.08073 -57.2131 25.254 -7.36872 23.7627 1.83494 12.5757 -2.09724 81.1388 12.0059 -41.7672 20.2211 2.4532 9.26478 6.3371 -15.4771 4.83271 119.154 -6.17759 18.9584 14.0038 -1.29804 8.22649 4.09127 -1.91593 6.83833 5.40477 -2.62069 -0.75524 1.61705 -53.2846 -13.0115 31.2313 -35.3072 11.1673 19.6652 9.40662 -8.83908 16.1411 31.837 13.3426 62.3174 -101.352 -78.8225 -98.5467 10.4645 -9.34367 -4.61049 28.184 10.7294 19.1592 2.91539e-15 -6.36111e-15 -10 1.07429e-14 -3.18055e-15 -10 1.59028e-15 -6.36111e-15 3.18055e-15 19.9818 0.871897 2.3964 24 1.59028e-15 6.36111e-15 20 -7.95139e-16 3.18055e-15 1.59028e-15 -6.36111e-15 3.18055e-15 20 -1.59028e-15 -3.18055e-15 24 4.37326e-15 6.36111e-15 20 7.95139e-16 -3.18055e-15 1.59028e-15 -6.36111e-15 3.18055e-15 19.9748 -1.02565 -2.81938 24 7.15625e-15 2.22639e-14 20 3.18055e-15 1.90833e-14 1.59028e-15 -6.36111e-15 3.18055e-15 19.7815 -3.00948 -8.30515 24 3.97569e-16 9.54166e-15 20 -1.59028e-15 6.36111e-15 -24.7477 -7.80995 -14.6042 -28.5084 43.6098 -84.3664 -11.4435 7.5101 14.144 -105.872 -69.6628 -128.183 -28.184 10.7294 -19.1592 1.54717e-15 9.54166e-15 10 8.00641e-15 9.54166e-15 10 -3.18055e-15 0 -7.95139e-16 -19.9818 0.871897 -2.3964 -24 1.59028e-15 3.18055e-15 -20 -1.19271e-15 3.18055e-15 -3.18055e-15 0 -7.95139e-16 -20 0 -3.18055e-15 -24 -3.97569e-15 3.18055e-15 -20 -2.98177e-15 6.36111e-15 -3.18055e-15 0 -7.95139e-16 -19.9748 -1.02565 2.81938 -24 -3.97569e-15 4.77083e-15 -20 -3.18055e-15 1.27222e-14 -3.18055e-15 0 -7.95139e-16 -19.7815 -3.00948 8.30515 -24 2.38542e-15 9.54166e-15 -20 -2.5842e-15 1.11319e-14 
0 0 0 0 0 -0 23.7743 -27.1212 -123.49 -6.08503 -57.2078 25.248 -7.3808 23.754 1.84993 12.5761 -2.0958 81.1256 11.9909 -41.7738 20.2206 2.44605 9.25757 6.33763 -15.4704 4.84847 119.148 -6.17502 18.9635 13.9919 -1.29723 8.22386 4.08703 -1.91541 6.84149 5.39862 -2.62077 -0.755048 1.61691 -53.2864 -13.0161 31.2327 -35.3096 11.1678 19.6671 9.4037 -8.83716 16.1432 31.8404 13.3143 62.3069 -101.345 -78.8394 -98.5643 10.4694 -9.32611 -4.61038 28.184 10.7294 19.1592 1.05399e-15 -3.18055e-15 -10 -1.13037e-14 0 -10 5.29669e-31 -9.54166e-15 3.18055e-15 19.9818 0.871897 2.3964 24 1.59028e-15 -3.18055e-15 20 0 -3.18055e-15 5.29669e-31 -9.54166e-15 3.18055e-15 20 4.77083e-15 1.27222e-14 24 1.98785e-15 3.18055e-15 20 0 3.18055e-15 5.29669e-31 -9.54166e-15 3.18055e-15 19.9748 -1.02565 -2.81938 24 1.39149e-15 -0 20 -1.59028e-15 -9.54166e-15 5.29669e-31 -9.54166e-15 3.18055e-15 19.7815 -3.00948 -8.30515 24 -3.18055e-15 -3.18055e-15 20 -1.59028e-15 -9.54166e-15 -24.7354 -7.79701 -14.6214 -28.6559 43.5583 -84.1877 -11.4804 7.67555 14.0811 -105.945 -69.6717 -128.277 -28.184 10.7294 -19.1592 1.17968e-14 6.36111e-15 10 6.73965e-15 -1.59028e-15 10 -3.18055e-15 -3.18055e-15 -1.59028e-15 -19.9818 0.871897 -2.3964 -24 -1.59028e-15 1.27222e-14 -20 -3.97569e-16 1.27222e-14 -3.18055e-15 -3.18055e-15 -1.59028e-15 -20 0 7.95139e-15 -24 3.18055e-15 1.59028e-14 -20 -2.18663e-15 3.18055e-15 -3.18055e-15 -3.18055e-15 -1.59028e-15 -19.9748 -1.02565 2.81938 -24 -3.18055e-15 9.54166e-15 -20 -1.39149e-15 9.54166e-15 -3.18055e-15 -3.18055e-15 -1.59028e-15 -19.7815 -3.00948 8.30515 -24 -3.97569e-15 9.54166e-15 -20 7.95139e-16 1.27222e-14 
0 0 0 0 0 -0 23.7705 -27.1263 -123.474 -6.10763 -57.2054 25.2278 -7.3967 23.7404 1.863 12.5862 -2.09111 81.1218 11.9822 -41.7804 20.2238 2.43818 9.23818 6.33769 -15.4633 4.87168 119.132 -6.16801 18.974 13.9623 -1.29568 8.22136 4.07748 -1.91426 6.8459 5.38659 -2.62085 -0.754885 1.61676 -53.296 -13.0407 31.2371 -35.3135 11.1675 19.6772 9.3911 -8.83471 16.1548 31.8363 13.3014 62.301 -101.291 -78.8585 -98.5272 10.4822 -9.35545 -4.61087 28.184 10.7294 19.1592 1.05399e-15 -3.18055e-15 -10 -1.12164e-15 -6.36111e-15 -10 -4.77083e-15 0 -3.18055e-15 19.9818 0.871897 2.3964 24 7.95139e-16 -3.18055e-15 20 0 -6.36111e-15 -4.77083e-15 0 -3.18055e-15 20 -1.59028e-15 6.36111e-15 24 -1.19271e-15 1.90833e-14 20 -7.95139e-16 6.36111e-15 -4.77083e-15 0 -3.18055e-15 19.9748 -1.02565 -2.81938 24 4.67144e-15 1.59028e-14 20 -1.59028e-15 3.18055e-15 -4.77083e-15 0 -3.18055e-15 19.7815 -3.00948 -8.30515 24 -3.57812e-15 1.90833e-14 20 0 -9.54166e-15 -24.7513 -7.81373 -14.5962 -28.6465 43.5624 -84.1985 -11.5005 7.68861 14.1 -105.895 -69.6685 -128.24 -28.184 10.7294 -19.1592 -4.35126e-15 6.36111e-15 10 -6.45924e-15 0 10 -3.18055e-15 3.18055e-15 2.38542e-15 -19.9818 0.871897 -2.3964 -24 0 9.54166e-15 -20 -1.19271e-15 9.54166e-15 -3.18055e-15 3.18055e-15 2.38542e-15 -20 -3.18055e-15 4.77083e-15 -24 7.95139e-16 1.59028e-14 -20 7.95139e-16 1.27222e-14 -3.18055e-15 3.18055e-15 2.38542e-15 -19.9748 -1.02565 2.81938 -24 7.95139e-16 1.74931e-14 -20 -1.98785e-15 6.36111e-15 -3.18055e-15 3.18055e-15 2.38542e-15 -19.7815 -3.00948 8.30515 -24 -1.59028e-15 1.11319e-14 -20 -1.2921e-15 1.11319e-14 
0 0 0 0 0 -0 23.7562 -27.1386 -123.471 -6.11406 -57.2017 25.2356 -7.41435 23.74 1.87188 12.5908 -2.09079 81.1174 11.9733 -41.7841 20.2459 2.43373 9.23814 6.31527 -15.4612 4.87661 119.132 -6.17007 18.9801 13.949 -1.29484 8.21948 4.07264 -1.91349 6.84941 5.37958 -2.62093 -0.754748 1.61661 -53.3003 -13.0506 31.2398 -35.3166 11.1673 19.6819 9.38596 -8.83255 16.158 31.833 13.2906 62.2824 -101.264 -78.8839 -98.5155 10.515 -9.41006 -4.59783 28.184 10.7294 19.1592 -7.51323e-15 3.18055e-15 -10 -4.93175e-16 6.36111e-15 -10 1.59028e-15 6.36111e-15 -0 19.9818 0.871897 2.3964 24 2.38542e-15 -3.18055e-15 20 -3.18055e-15 -6.36111e-15 1.59028e-15 6.36111e-15 -0 20 6.36111e-15 -0 24 -1.19271e-15 -0 20 3.97569e-15 -3.18055e-15 1.59028e-15 6.36111e-15 -0 19.9748 -1.02565 -2.81938 24 -2.18663e-15 -3.18055e-15 20 0 -3.18055e-15 1.59028e-15 6.36111e-15 -0 19.7815 -3.00948 -8.30515 24 -3.57812e-15 -0 20 0 -1.27222e-14 -24.7524 -7.81382 -14.593 -28.6309 43.5607 -84.2237 -11.5293 7.70663 14.1167 -105.922 -69.6678 -128.287 -28.184 10.7294 -19.1592 1.08105e-14 -6.36111e-15 10 -9.12804e-15 -3.18055e-15 10 -0 0 3.18055e-15 -19.9818 0.871897 -2.3964 -24 3.18055e-15 -3.18055e-15 -20 -2.38542e-15 6.36111e-15 -0 0 3.18055e-15 -20 6.36111e-15 -0 -24 -7.95139e-16 -6.36111e-15 -20 1.98785e-16 -0 -0 0 3.18055e-15 -19.9748 -1.02565 2.81938 -24 0 -3.18055e-15 -20 7.95139e-16 -6.36111e-15 -0 0 3.18055e-15 -19.7815 -3.00948 8.30515 -24 5.56597e-15 -3.18055e-15 -20 1.09332e-15 -0 
0 0 0 0 0 -0 23.7459 -27.1448 -123.474 -6.11017 -57.199 25.2462 -7.42778 23.7382 1.87087 12.5977 -2.08851 81.1248 11.9672 -41.7855 20.2719 2.43479 9.23938 6.2937 -15.4598 4.87354 119.123 -6.17149 18.9855 13.9378 -1.29422 8.2182 4.06894 -1.91454 6.8509 5.37457 -2.62101 -0.754635 1.61646 -53.306 -13.0622 31.2481 -35.3201 11.1669 19.6885 9.37463 -8.83017 16.1653 31.8394 13.2807 62.2551 -101.223 -78.9139 -98.4843 10.577 -9.50057 -4.56331 28.184 10.7294 19.1592 -1.36822e-15 -3.18055e-15 -10 1.40401e-14 6.36111e-15 -10 7.95139e-16 3.18055e-15 -0 19.9818 0.871897 2.3964 24 5.96354e-15 -3.18055e-15 20 -7.95139e-16 -0 7.95139e-16 3.18055e-15 -0 20 -1.59028e-15 -3.18055e-15 24 6.75868e-15 -0 20 1.59028e-15 6.36111e-15 7.95139e-16 3.18055e-15 -0 19.9748 -1.02565 -2.81938 24 0 -0 20 0 3.18055e-15 7.95139e-16 3.18055e-15 -0 19.7815 -3.00948 -8.30515 24 -3.97569e-16 -0 20 3.18055e-15 -6.36111e-15 -24.7418 -7.80081 -14.6101 -28.6197 43.5421 -84.256 -11.5404 7.67518 14.1609 -105.854 -69.6649 -128.224 -28.184 10.7294 -19.1592 -1.23577e-14 -3.18055e-15 10 -6.45924e-15 0 10 -4.41391e-32 3.18055e-15 7.95139e-16 -19.9818 0.871897 -2.3964 -24 -1.59028e-15 1.90833e-14 -20 3.97569e-16 9.54166e-15 -4.41391e-32 3.18055e-15 7.95139e-16 -20 -3.18055e-15 1.43125e-14 -24 -1.59028e-15 2.06736e-14 -20 -3.37934e-15 1.59028e-14 -4.41391e-32 3.18055e-15 7.95139e-16 -19.9748 -1.02565 2.81938 -24 -7.95139e-16 1.74931e-14 -20 -4.17448e-15 1.27222e-14 -4.41391e-32 3.18055e-15 7.95139e-16 -19.7815 -3.00948 8.30515 -24 -2.38542e-15 2.54444e-14 -20 -2.68359e-15 2.22639e-14 
